<svg width="406" height="512" viewBox="0 0 406 512" fill="none" xmlns="http://www.w3.org/2000/svg">
<g clip-path="url(#clip0_5_2)">
<path d="M53.962 65.59V436.52C53.962 499.262 13.022 512.876 13.022 512.876H405.457V387.983C405.457 413.779 369.232 448.711 337.387 448.711H185.86C155.48 448.711 152.713 421.129 152.713 421.129V288.542H271.095C307.342 288.542 308.977 319.322 308.977 319.322V211.593C308.977 211.593 300.339 224.615 272.83 224.615H152.712V65.59H301.872C373.755 65.59 372.902 122.376 372.902 122.376V0.875H0C0 0.875 53.962 5.215 53.962 65.59Z" fill="#4355B9"/>
</g>
<defs>
<clipPath id="clip0_5_2">
<rect width="406" height="512" fill="white"/>
</clipPath>
</defs>
</svg>
